<svg width="89" height="45" viewBox="0 0 89 45" fill="none" xmlns="http://www.w3.org/2000/svg">
<path d="M33.4441 41.9863C30.1659 43.9039 26.3586 45 22.2944 45C9.98308 45 0 34.9237 0 22.4975C0 10.0712 9.98308 0 22.2944 0V22.4975C22.2944 30.8265 26.7794 38.1002 33.4441 41.9863Z" fill="#F04B25"/>
<path d="M44.5887 22.4974C44.5887 30.8214 40.1087 38.0951 33.4441 41.9862C26.7794 38.1002 22.2944 30.8265 22.2944 22.4974H44.5887Z" fill="#D12215"/>
<path d="M48.5774 44.6414C47.2823 44.8754 45.9519 45 44.5887 45C40.5295 45 36.7222 43.9064 33.4441 41.9863C40.1087 38.0951 44.5887 30.8215 44.5887 22.4975H22.2944C22.2944 10.0712 32.2774 0 44.5887 0C44.6467 0 44.7097 0 44.7651 0.00508647V44.6439H48.5774V44.6414Z" fill="#F4A905"/>
<path d="M66.878 22.4975C66.878 33.5504 58.9863 42.7442 48.5774 44.6414H44.7651V0.00512695C56.9983 0.0992266 66.878 10.1297 66.878 22.4975Z" fill="#12376B"/>
<path d="M88.996 0L66.8554 22.5L88.996 44.6414H48.5774C58.9863 42.7416 66.878 33.5504 66.878 22.4975C66.878 10.1297 56.9983 0.0991862 44.7651 0.00508647V0H88.9935H88.996Z" fill="#286CD5"/>
</svg>
